<?xml version="1.0" encoding="UTF-8" standalone="no"?>
<svg
   inkscape:version="1.1.2 (0a00cf5339, 2022-02-04)"
   sodipodi:docname="logo_white.svg"
   viewBox="0 0 100 100"
   height="100"
   width="100"
   xml:space="preserve"
   id="svg2"
   version="1.1"
   xmlns:inkscape="http://www.inkscape.org/namespaces/inkscape"
   xmlns:sodipodi="http://sodipodi.sourceforge.net/DTD/sodipodi-0.dtd"
   xmlns="http://www.w3.org/2000/svg"
   xmlns:svg="http://www.w3.org/2000/svg"
   xmlns:rdf="http://www.w3.org/1999/02/22-rdf-syntax-ns#"
   xmlns:cc="http://creativecommons.org/ns#"
   xmlns:dc="http://purl.org/dc/elements/1.1/"><metadata
     id="metadata8"><rdf:RDF><cc:Work
         rdf:about=""><dc:format>image/svg+xml</dc:format><dc:type
           rdf:resource="http://purl.org/dc/dcmitype/StillImage" /></cc:Work></rdf:RDF></metadata><defs
     id="defs6"><clipPath
       id="clipPath18"
       clipPathUnits="userSpaceOnUse"><path
         inkscape:connector-curvature="0"
         id="path16"
         d="M 0,151.333 H 87.151 V 0 H 0 Z" /></clipPath></defs><sodipodi:namedview
     inkscape:document-rotation="0"
     inkscape:current-layer="g14"
     inkscape:window-maximized="1"
     inkscape:window-y="32"
     inkscape:window-x="0"
     inkscape:cy="88.871536"
     inkscape:cx="1.0579945"
     inkscape:zoom="3.3081458"
     fit-margin-bottom="0"
     fit-margin-right="0"
     fit-margin-left="0"
     fit-margin-top="0"
     showgrid="false"
     id="namedview4"
     inkscape:window-height="2091"
     inkscape:window-width="3840"
     inkscape:pageshadow="2"
     inkscape:pageopacity="1"
     guidetolerance="10"
     gridtolerance="10"
     objecttolerance="10"
     borderopacity="1"
     bordercolor="#666666"
     pagecolor="#662c91"
     inkscape:pagecheckerboard="0" /><g
     transform="matrix(1.3333333,0,0,-1.3333333,-2.3236,197.04173)"
     inkscape:label="logo_CMYK"
     inkscape:groupmode="layer"
     id="g10"><g
   id="g12"><g
     clip-path="url(#clipPath18)"
     id="g14"><g
       id="g986"
       transform="matrix(0.89642955,0,0,0.89642955,0.18049227,11.417402)"
       style="stroke-width:1.11553"><g
         transform="translate(20.373,120.667)"
         id="g72"
         style="fill:#ffffff;fill-opacity:1;stroke-width:1.11553"><path
           inkscape:connector-curvature="0"
           id="path74"
           style="fill:#ffffff;fill-opacity:1;fill-rule:nonzero;stroke:none;stroke-width:1.11553"
           d="m 0,0 c -0.632,0 -1.144,-0.512 -1.144,-1.143 v -27.67 h -9.699 c -0.632,0 -1.143,-0.511 -1.143,-1.142 0,-0.632 0.511,-1.144 1.143,-1.144 H 4.129 7.389 29.86 c 9.972,0 18.396,8.478 18.396,18.512 0,0.631 -0.512,1.143 -1.143,1.143 -0.631,0 -1.142,-0.512 -1.142,-1.143 0,-8.795 -7.378,-16.226 -16.111,-16.226 H 17.918 v 27.67 C 17.918,-0.512 17.406,0 16.775,0 16.144,0 15.632,-0.512 15.632,-1.143 v -27.67 H 12.325 V 2.89 c 0,0.631 -0.512,1.143 -1.142,1.143 -0.632,0 -1.144,-0.512 -1.144,-1.143 V -28.813 H 7.389 6.734 v 20.195 c 0,0.631 -0.511,1.142 -1.142,1.142 -0.632,0 -1.144,-0.511 -1.144,-1.142 V -28.813 H 4.129 1.143 v 27.67 C 1.143,-0.512 0.631,0 0,0" /></g><g
         transform="translate(50.2334,147.7813)"
         id="g76"
         style="fill:#ffffff;fill-opacity:1;stroke-width:1.11553"><path
           inkscape:connector-curvature="0"
           id="path78"
           style="fill:#ffffff;fill-opacity:1;fill-rule:nonzero;stroke:none;stroke-width:1.11553"
           d="m 0,0 h -35.591 c -0.632,0 -1.143,-0.512 -1.143,-1.143 0,-0.631 0.511,-1.143 1.143,-1.143 H 0 c 17.828,0 32.89,-15.113 32.89,-33.003 v -4.412 C 32.89,-57.591 17.828,-72.704 0,-72.704 h -17.523 c -0.632,0 -1.144,-0.512 -1.144,-1.144 0,-0.631 0.512,-1.142 1.144,-1.142 H 0 c 19.066,0 35.175,16.16 35.175,35.289 v 4.412 C 35.175,-16.16 19.066,0 0,0" /></g><g
         transform="translate(78.6738,106.9365)"
         id="g80"
         style="fill:#ffffff;fill-opacity:1;stroke-width:1.11553"><path
           inkscape:connector-curvature="0"
           id="path82"
           style="fill:#ffffff;fill-opacity:1;fill-rule:nonzero;stroke:none;stroke-width:1.11553"
           d="m 0,0 c 0.631,0 1.143,0.512 1.143,1.144 v 4.412 c 0,16.096 -13.547,29.696 -29.583,29.696 h -20.136 c -0.632,0 -1.144,-0.512 -1.144,-1.144 0,-0.63 0.512,-1.142 1.144,-1.142 h 20.136 c 14.796,0 27.297,-12.553 27.297,-27.41 V 1.144 C -1.143,0.512 -0.631,0 0,0" /></g><g
         transform="translate(74.2217,108.0801)"
         id="g84"
         style="fill:#ffffff;fill-opacity:1;stroke-width:1.11553"><path
           inkscape:connector-curvature="0"
           id="path86"
           style="fill:#ffffff;fill-opacity:1;fill-rule:nonzero;stroke:none;stroke-width:1.11553"
           d="m 0,0 v 4.412 c 0,13.066 -10.985,24.104 -23.988,24.104 h -14.546 c -0.632,0 -1.144,-0.512 -1.144,-1.144 0,-0.631 0.512,-1.143 1.144,-1.143 h 14.546 c 11.763,0 21.703,-9.991 21.703,-21.817 V 0 c 0,-11.827 -9.94,-21.818 -21.703,-21.818 h -14.548 c -0.632,0 -1.144,-0.512 -1.144,-1.143 0,-0.632 0.512,-1.143 1.144,-1.143 h 14.548 C -10.985,-24.104 0,-13.065 0,0" /></g><g
         transform="translate(25.8057,128.7178)"
         id="g88"
         style="fill:#ffffff;fill-opacity:1;stroke-width:1.11553"><path
           inkscape:connector-curvature="0"
           id="path90"
           style="fill:#ffffff;fill-opacity:1;fill-rule:nonzero;stroke:none;stroke-width:1.11553"
           d="m 0,0 h 24.428 c 0.631,0 1.142,0.512 1.142,1.143 0,0.631 -0.511,1.143 -1.142,1.143 H 0 C -0.632,2.286 -1.144,1.774 -1.144,1.143 -1.144,0.512 -0.632,0 0,0" /></g><g
         transform="translate(4.8613,145.4951)"
         id="g92"
         style="fill:#ffffff;fill-opacity:1;stroke-width:1.11553"><path
           inkscape:connector-curvature="0"
           id="path94"
           style="fill:#ffffff;fill-opacity:1;fill-rule:nonzero;stroke:none;stroke-width:1.11553"
           d="m 0,0 h 4.017 c 0.63,0 1.142,0.512 1.142,1.144 0,0.63 -0.512,1.142 -1.142,1.142 L 0,2.286 C -0.632,2.286 -1.144,1.774 -1.144,1.144 -1.144,0.512 -0.632,0 0,0" /></g><g
         transform="translate(23.1914,139.9023)"
         id="g96"
         style="fill:#ffffff;fill-opacity:1;stroke-width:1.11553"><path
           inkscape:connector-curvature="0"
           id="path98"
           style="fill:#ffffff;fill-opacity:1;fill-rule:nonzero;stroke:none;stroke-width:1.11553"
           d="M 0,0 C 0.631,0 1.143,0.512 1.143,1.143 1.143,1.774 0.631,2.286 0,2.286 H -4.807 C -5.438,2.286 -5.95,1.774 -5.95,1.143 -5.95,0.512 -5.438,0 -4.807,0 Z" /></g><g
         transform="translate(5.4551,135.4521)"
         id="g100"
         style="fill:#ffffff;fill-opacity:1;stroke-width:1.11553"><path
           inkscape:connector-curvature="0"
           id="path102"
           style="fill:#ffffff;fill-opacity:1;fill-rule:nonzero;stroke:none;stroke-width:1.11553"
           d="M 0,0 C 0,-0.631 0.512,-1.143 1.144,-1.143 H 23.33 c 0.631,0 1.143,0.512 1.143,1.143 0,0.632 -0.512,1.144 -1.143,1.144 H 1.144 C 0.512,1.144 0,0.632 0,0" /></g><g
         transform="translate(2.8867,128.7178)"
         id="g104"
         style="fill:#ffffff;fill-opacity:1;stroke-width:1.11553"><path
           inkscape:connector-curvature="0"
           id="path106"
           style="fill:#ffffff;fill-opacity:1;fill-rule:nonzero;stroke:none;stroke-width:1.11553"
           d="m 0,0 h 16.014 c 0.631,0 1.142,0.512 1.142,1.143 0,0.631 -0.511,1.143 -1.142,1.143 H 0 C -0.632,2.286 -1.144,1.774 -1.144,1.143 -1.144,0.512 -0.632,0 0,0" /></g><g
         transform="translate(16.7637,86.2617)"
         id="g108"
         style="fill:#ffffff;fill-opacity:1;stroke-width:1.11553"><path
           inkscape:connector-curvature="0"
           id="path110"
           style="fill:#ffffff;fill-opacity:1;fill-rule:nonzero;stroke:none;stroke-width:1.11553"
           d="m 0,0 c -0.632,0 -1.144,-0.512 -1.144,-1.143 0,-0.631 0.512,-1.143 1.144,-1.143 h 12.02 c 0.63,0 1.142,0.512 1.142,1.143 C 13.162,-0.512 12.65,0 12.02,0 Z" /></g><g
         transform="translate(5.4551,79.5264)"
         id="g112"
         style="fill:#ffffff;fill-opacity:1;stroke-width:1.11553"><path
           inkscape:connector-curvature="0"
           id="path114"
           style="fill:#ffffff;fill-opacity:1;fill-rule:nonzero;stroke:none;stroke-width:1.11553"
           d="M 0,0 C 0,-0.631 0.512,-1.143 1.144,-1.143 H 31.857 C 32.488,-1.143 33,-0.631 33,0 33,0.632 32.488,1.144 31.857,1.144 H 1.144 C 0.512,1.144 0,0.632 0,0" /></g><g
         transform="translate(47.2012,78.3838)"
         id="g116"
         style="fill:#ffffff;fill-opacity:1;stroke-width:1.11553"><path
           inkscape:connector-curvature="0"
           id="path118"
           style="fill:#ffffff;fill-opacity:1;fill-rule:nonzero;stroke:none;stroke-width:1.11553"
           d="m 0,0 h 3.056 c 4.873,0 9.743,1.281 14.084,3.704 4.571,2.557 8.435,6.28 11.174,10.771 0.33,0.538 0.159,1.242 -0.379,1.57 -0.54,0.328 -1.244,0.159 -1.572,-0.38 C 23.828,11.51 20.253,8.064 16.024,5.7 12.024,3.466 7.54,2.286 3.056,2.286 H 0 C -0.631,2.286 -1.143,1.774 -1.143,1.143 -1.143,0.512 -0.631,0 0,0" /></g></g></g></g>

</g></svg>
